# xmcd
#
# Track frame offsets: 
#        150
#        31423
#        58595
#        95725
#        123408
#        183345
#        252411
#
# Disc length: 3735 seconds
#
# Revision: 0
# Processed by: cddbd v1.5.2PL0 Copyright (c) Steve Scherf et al.
# Submitted via: ExactAudioCopy v0.99pb5
#
DISCID=5e0e9507
DTITLE=Eric Clapton  - E.C. Is Here - Disc 10 (DJ Copy 72)
DYEAR=1900
DGENRE=
TTITLE0=Teach Me To Be Your Woman
TTITLE1=Bell Bottom Blues
TTITLE2=Badge
TTITLE3=Knockin' On Heaven's Door
TTITLE4=Tell The Truth
TTITLE5=Eyesight To The Blind
TTITLE6=Why Does Love Got To Be So Sad
EXTD=
EXTT0=
EXTT1=
EXTT2=
EXTT3=
EXTT4=
EXTT5=
EXTT6=
PLAYORDER=
